ply
format ascii 1.0
comment Created by Open3D
element vertex 192
property double x
property double y
property double z
property double nx
property double ny
property double nz
element face 304
property list uchar uint vertex_indices
end_header
379.874 -550 44.7929 0.6734 -0.7393 4.52691e-17
254.088 -550 44.7918 0 -1 6.12323e-17
254.088 550.001 44.7918 -1 0 0
400.001 531.667 44.7929 0.6734 0.7393 -4.52691e-17
400.001 -531.666 67.7079 0.6734 -0.7393 4.52691e-17
379.874 550.001 67.7079 0.6734 0.7393 -4.52691e-17
254.088 550.001 67.7079 -1 0 0
254.088 -550 67.7079 0 -1 6.12323e-17
213.836 -550 44.7918 0 -1 6.12323e-17
113.207 -550 44.7918 0 -1 6.12323e-17
113.207 550.001 44.7918 -1 0 0
213.836 550.001 44.7918 0 1 -6.12323e-17
213.836 -550 67.7079 0 -1 6.12323e-17
213.836 550.001 67.7079 0 1 -6.12323e-17
113.207 550.001 67.7079 -1 0 0
113.207 -550 67.7079 0 -1 6.12323e-17
72.9549 -550 44.7918 0 -1 6.12323e-17
-72.9581 -550 44.7918 0 -1 6.12323e-17
-72.9581 550.001 44.7918 -1 0 0
72.9549 550.001 44.7918 0 1 -6.12323e-17
72.9549 -550 67.7079 0 -1 6.12323e-17
72.9549 550.001 67.7079 0 1 -6.12323e-17
-72.9581 550.001 67.7079 -1 0 0
-72.9581 -550 67.7079 0 -1 6.12323e-17
-113.209 -550 44.7918 0 -1 6.12323e-17
-213.838 -550 44.7918 0 -1 6.12323e-17
-213.838 550.001 44.7918 -1 0 0
-113.209 550.001 44.7918 0 1 -6.12323e-17
-113.209 -550 67.7079 0 -1 6.12323e-17
-113.209 550.001 67.7079 0 1 -6.12323e-17
-213.838 550.001 67.7079 -1 0 0
-213.838 -550 67.7079 0 -1 6.12323e-17
-254.089 -550 44.7918 0 -1 6.12323e-17
-379.874 -550 44.7918 -0.6734 -0.7392 4.52629e-17
-399.999 531.667 44.7918 -0.6734 0.7392 -4.52629e-17
-254.089 550.001 44.7918 0 1 -6.12323e-17
-254.089 -550 67.7079 0 -1 6.12323e-17
-254.089 550.001 67.7079 0 1 -6.12323e-17
-399.999 531.667 67.7079 -0.6734 0.7392 -4.52629e-17
-379.874 -550 67.7079 -0.6734 -0.7392 4.52629e-17
400.001 531.667 21.874 0.6734 0.7393 -4.52691e-17
400.001 417.083 21.874 1 0 0
-399.999 417.083 21.874 0 -1 6.12323e-17
-399.999 531.667 21.874 -0.6734 0.7393 -4.52691e-17
379.874 550.001 44.7929 0.6734 0.7393 -4.52691e-17
-399.999 531.667 44.7918 -0.6734 0.7393 -4.52691e-17
-399.999 417.083 44.7918 0 -1 6.12323e-17
400.001 417.083 44.7929 1 0 0
-299.37 417.083 -59.3741 0 -1 6.12323e-17
-299.37 550.001 -59.3741 0 1 -6.12323e-17
-299.37 550.001 21.874 0 1 -6.12323e-17
-299.37 417.083 21.874 0 -1 6.12323e-17
-399.999 531.667 -59.3741 -0.6734 0.7392 -4.52629e-17
-379.874 550.001 21.874 -0.6734 0.7392 -4.52629e-17
-399.999 417.083 -59.3741 0 -1 6.12323e-17
-399.999 417.083 21.874 0 -1 6.12323e-17
-299.37 -550 -82.2921 0 -1 6.12323e-17
-379.874 -550 -82.2921 -0.6734 -0.7392 4.52629e-17
-399.999 531.667 -82.2921 -0.6734 0.7393 -4.52691e-17
-299.37 550.001 -82.2921 0 1 -6.12323e-17
-299.37 -550 -59.3741 0 -1 6.12323e-17
-299.37 550.001 -59.3741 0 1 -6.12323e-17
-399.999 531.667 -59.3741 -0.6734 0.7393 -4.52691e-17
-379.874 -550 -59.3741 -0.6734 -0.7392 4.52629e-17
72.9549 417.083 21.874 0 6.12323e-17 1
72.9549 550.001 21.874 0 6.12323e-17 1
-72.9581 550.001 21.874 0 6.12323e-17 1
-72.9581 417.083 21.874 0 6.12323e-17 1
72.9549 417.083 -59.3741 0 -6.12323e-17 -1
72.9549 550.001 -59.3741 0 -6.12323e-17 -1
-72.9581 550.001 -59.3741 0 -6.12323e-17 -1
-72.9581 417.083 -59.3741 0 -6.12323e-17 -1
72.9549 -550 -82.2921 0 -1 6.12323e-17
-72.9581 -550 -82.2921 0 -1 6.12323e-17
-72.9581 550.001 -82.2921 -1 0 0
72.9549 550.001 -82.2921 0 1 -6.12323e-17
72.9549 -550 -59.3741 0 -1 6.12323e-17
72.9549 550.001 -59.3741 0 1 -6.12323e-17
-72.9581 550.001 -59.3741 -1 0 0
-72.9581 -550 -59.3741 0 -1 6.12323e-17
379.874 -550 -82.2921 0.6734 -0.7393 4.52691e-17
299.372 -550 -82.2921 0 -1 6.12323e-17
299.372 550.001 -82.2921 -1 0 0
400.001 531.667 -82.2921 0.6734 0.7393 -4.52691e-17
400.001 -531.666 -59.3741 0.6734 -0.7393 4.52691e-17
379.874 550.001 -59.3741 0.6734 0.7393 -4.52691e-17
299.372 550.001 -59.3741 -1 0 0
299.372 -550 -59.3741 0 -1 6.12323e-17
400.001 417.083 21.874 0 -1 6.12323e-17
400.001 531.667 21.874 0.6734 0.7393 -4.52691e-17
299.372 550.001 21.874 -1 0 0
299.372 417.083 21.874 0 -1 6.12323e-17
400.001 417.083 -59.3741 0 -1 6.12323e-17
379.874 550.001 -59.3741 0.6734 0.7393 -4.52691e-17
299.372 550.001 -59.3741 -1 0 0
299.372 417.083 -59.3741 0 -1 6.12323e-17
400.001 66.4587 21.874 1 0 0
400.001 -66.4583 21.874 1 0 0
-399.999 -66.4583 21.874 0 -1 6.12323e-17
-399.999 66.4587 21.874 -1 0 0
400.001 66.4587 44.7929 1 0 0
-399.999 66.4587 44.7918 -1 0 0
-399.999 -66.4583 44.7918 0 -1 6.12323e-17
400.001 -66.4583 44.7929 1 0 0
400.001 -417.084 21.874 1 0 0
400.001 -531.666 21.874 0.6734 -0.7393 4.52691e-17
-379.874 -550 21.874 -0.6734 -0.7392 4.52629e-17
-399.999 -417.084 21.874 -1 0 0
400.001 -417.084 44.7929 1 0 0
-399.999 -417.084 44.7918 -1 0 0
-379.874 -550 44.7918 -0.6734 -0.7392 4.52629e-17
400.001 -531.666 44.7929 0.6734 -0.7393 4.52691e-17
400.001 -66.4583 -59.3741 0 -6.12323e-17 -1
400.001 66.4587 -59.3741 0 -6.12323e-17 -1
400.001 66.4587 21.874 0 6.12323e-17 1
400.001 -66.4583 21.874 0 6.12323e-17 1
299.372 66.4587 -59.3741 0 -6.12323e-17 -1
299.372 66.4587 21.874 0 6.12323e-17 1
299.372 -66.4583 -59.3741 0 -6.12323e-17 -1
299.372 -66.4583 21.874 0 6.12323e-17 1
72.9549 -66.4583 -59.3741 0 -6.12323e-17 -1
72.9549 66.4587 -59.3741 0 -6.12323e-17 -1
72.9549 66.4587 21.874 0 6.12323e-17 1
72.9549 -66.4583 21.874 0 6.12323e-17 1
-72.9581 66.4587 -59.3741 0 -6.12323e-17 -1
-72.9581 66.4587 21.874 0 6.12323e-17 1
-72.9581 -66.4583 -59.3741 0 -6.12323e-17 -1
-72.9581 -66.4583 21.874 0 6.12323e-17 1
-299.37 -66.4583 -59.3741 0 -6.12323e-17 -1
-299.37 66.4587 -59.3741 0 -6.12323e-17 -1
-299.37 66.4587 21.874 0 6.12323e-17 1
-299.37 -66.4583 21.874 0 6.12323e-17 1
-399.999 66.4587 -59.3741 0 -6.12323e-17 -1
-399.999 66.4587 21.874 0 6.12323e-17 1
-399.999 -66.4583 -59.3741 0 -6.12323e-17 -1
-399.999 -66.4583 21.874 0 6.12323e-17 1
-299.37 -550 -59.3741 0 -1 6.12323e-17
-299.37 -417.084 -59.3741 0 1 -6.12323e-17
-299.37 -417.084 21.874 0 1 -6.12323e-17
-299.37 -550 21.874 0 -1 6.12323e-17
-399.999 -417.084 -59.3741 -1 0 0
-399.999 -417.084 21.874 -1 0 0
-379.874 -550 -59.3741 -0.6734 -0.7393 4.52691e-17
-399.999 -531.666 21.874 -0.6734 -0.7393 4.52691e-17
72.9549 -550 -59.3741 0 -6.12323e-17 -1
72.9549 -417.084 -59.3741 0 -6.12323e-17 -1
72.9549 -417.084 21.874 0 6.12323e-17 1
72.9549 -550 21.874 0 6.12323e-17 1
-72.9581 -417.084 -59.3741 0 -6.12323e-17 -1
-72.9581 -417.084 21.874 0 6.12323e-17 1
-72.9581 -550 -59.3741 0 -6.12323e-17 -1
-72.9581 -550 21.874 0 6.12323e-17 1
400.001 -531.666 -59.3741 0.6734 -0.7393 4.52691e-17
400.001 -417.084 -59.3741 0 1 -6.12323e-17
400.001 -417.084 21.874 0 1 -6.12323e-17
379.874 -550 21.874 0.6734 -0.7393 4.52691e-17
299.372 -417.084 -59.3741 -1 0 0
299.372 -417.084 21.874 -1 0 0
299.372 -550 -59.3741 0 -1 6.12323e-17
299.372 -550 21.874 0 -1 6.12323e-17
379.874 550.001 44.7929 0.6734 0.7393 -4.52691e-17
400.001 531.667 67.7079 0.6734 0.7393 -4.52691e-17
379.874 550.001 21.874 0.6734 0.7393 -4.52691e-17
400.001 531.667 44.7929 0.6734 0.7393 -4.52691e-17
379.874 550.001 21.874 0.6734 0.7393 -4.52691e-17
400.001 531.667 -59.3741 0.6734 0.7393 -4.52691e-17
379.874 550.001 -82.2921 0.6734 0.7393 -4.52691e-17
400.001 531.667 -59.3741 0.6734 0.7393 -4.52691e-17
-379.874 550.001 44.7918 -0.6734 0.7392 -4.52629e-17
-379.874 550.001 67.7079 -0.6734 0.7392 -4.52629e-17
-379.874 550.001 -59.3741 -0.6734 0.7392 -4.52629e-17
-399.999 531.667 21.874 -0.6734 0.7392 -4.52629e-17
-379.874 550.001 21.874 -0.6734 0.7393 -4.52691e-17
-379.874 550.001 44.7918 -0.6734 0.7393 -4.52691e-17
-379.874 550.001 -82.2921 -0.6734 0.7393 -4.52691e-17
-379.874 550.001 -59.3741 -0.6734 0.7393 -4.52691e-17
-399.999 -531.666 44.7918 -0.6734 -0.7392 4.52629e-17
-399.999 -531.666 67.7079 -0.6734 -0.7392 4.52629e-17
-399.999 -531.666 21.874 -0.6734 -0.7392 4.52629e-17
-399.999 -531.666 44.7918 -0.6734 -0.7392 4.52629e-17
-399.999 -531.666 -59.3741 -0.6734 -0.7393 4.52691e-17
-379.874 -550 21.874 -0.6734 -0.7393 4.52691e-17
-399.999 -531.666 -82.2921 -0.6734 -0.7392 4.52629e-17
-399.999 -531.666 -59.3741 -0.6734 -0.7392 4.52629e-17
400.001 -531.666 44.7929 0.6734 -0.7393 4.52691e-17
379.874 -550 67.7079 0.6734 -0.7393 4.52691e-17
379.874 -550 21.874 0.6734 -0.7393 4.52691e-17
379.874 -550 44.7929 0.6734 -0.7393 4.52691e-17
379.874 -550 -59.3741 0.6734 -0.7393 4.52691e-17
400.001 -531.666 21.874 0.6734 -0.7393 4.52691e-17
400.001 -531.666 -82.2921 0.6734 -0.7393 4.52691e-17
379.874 -550 -59.3741 0.6734 -0.7393 4.52691e-17
3 2 160 3
3 2 3 184
3 2 184 0
3 2 0 1
3 4 161 5
3 4 5 6
3 4 6 7
3 4 7 185
3 176 34 168
3 176 168 35
3 176 35 32
3 176 32 33
3 38 177 39
3 38 39 36
3 38 36 37
3 38 37 169
3 42 43 172
3 42 172 162
3 42 162 40
3 42 40 41
3 44 173 45
3 44 45 46
3 44 46 47
3 44 47 163
3 182 58 174
3 182 174 59
3 182 59 56
3 182 56 57
3 62 183 63
3 62 63 60
3 62 60 61
3 62 61 175
3 82 166 83
3 82 83 190
3 82 190 80
3 82 80 81
3 84 167 85
3 84 85 86
3 84 86 87
3 84 87 191
3 186 106 178
3 186 178 107
3 186 107 104
3 186 104 105
3 110 187 111
3 110 111 108
3 110 108 109
3 110 109 179
3 54 52 170
3 54 170 49
3 54 49 48
3 51 50 53
3 51 53 171
3 51 171 55
3 88 89 164
3 88 164 90
3 88 90 91
3 95 94 93
3 95 93 165
3 95 165 92
3 139 138 141
3 139 141 143
3 139 143 181
3 142 180 140
3 142 140 137
3 142 137 136
3 155 189 154
3 155 154 157
3 155 157 159
3 158 156 153
3 158 153 152
3 158 152 188
3 161 4 184
3 161 184 3
3 6 5 160
3 6 160 2
3 7 6 2
3 7 2 1
3 185 7 1
3 185 1 0
3 10 11 8
3 10 8 9
3 14 15 12
3 14 12 13
3 13 12 8
3 13 8 11
3 14 13 11
3 14 11 10
3 15 14 10
3 15 10 9
3 12 15 9
3 12 9 8
3 18 19 16
3 18 16 17
3 22 23 20
3 22 20 21
3 21 20 16
3 21 16 19
3 22 21 19
3 22 19 18
3 23 22 18
3 23 18 17
3 20 23 17
3 20 17 16
3 26 27 24
3 26 24 25
3 30 31 28
3 30 28 29
3 29 28 24
3 29 24 27
3 30 29 27
3 30 27 26
3 31 30 26
3 31 26 25
3 28 31 25
3 28 25 24
3 37 36 32
3 37 32 35
3 169 37 35
3 169 35 168
3 177 38 34
3 177 34 176
3 36 39 33
3 36 33 32
3 173 44 162
3 173 162 172
3 46 45 43
3 46 43 42
3 47 46 42
3 47 42 41
3 163 47 41
3 163 41 40
3 50 51 48
3 50 48 49
3 53 50 49
3 53 49 170
3 55 171 52
3 55 52 54
3 51 55 54
3 51 54 48
3 61 60 56
3 61 56 59
3 175 61 59
3 175 59 174
3 183 62 58
3 183 58 182
3 60 63 57
3 60 57 56
3 65 64 68
3 65 68 69
3 66 65 69
3 66 69 70
3 67 66 70
3 67 70 71
3 64 67 71
3 64 71 68
3 74 75 72
3 74 72 73
3 78 79 76
3 78 76 77
3 77 76 72
3 77 72 75
3 78 77 75
3 78 75 74
3 79 78 74
3 79 74 73
3 76 79 73
3 76 73 72
3 167 84 190
3 167 190 83
3 86 85 166
3 86 166 82
3 87 86 82
3 87 82 81
3 191 87 81
3 191 81 80
3 89 88 92
3 89 92 165
3 90 164 93
3 90 93 94
3 91 90 94
3 91 94 95
3 88 91 95
3 88 95 92
3 98 99 96
3 98 96 97
3 102 103 100
3 102 100 101
3 101 100 96
3 101 96 99
3 102 101 99
3 102 99 98
3 103 102 98
3 103 98 97
3 100 103 97
3 100 97 96
3 109 108 104
3 109 104 107
3 179 109 107
3 179 107 178
3 187 110 106
3 187 106 186
3 108 111 105
3 108 105 104
3 114 115 112
3 114 112 113
3 117 114 113
3 117 113 116
3 119 117 116
3 119 116 118
3 115 119 118
3 115 118 112
3 122 123 120
3 122 120 121
3 125 122 121
3 125 121 124
3 127 125 124
3 127 124 126
3 123 127 126
3 123 126 120
3 130 131 128
3 130 128 129
3 133 130 129
3 133 129 132
3 135 133 132
3 135 132 134
3 131 135 134
3 131 134 128
3 138 139 136
3 138 136 137
3 141 138 137
3 141 137 140
3 143 141 140
3 143 140 180
3 139 181 142
3 139 142 136
3 146 147 144
3 146 144 145
3 149 146 145
3 149 145 148
3 151 149 148
3 151 148 150
3 147 151 150
3 147 150 144
3 154 189 152
3 154 152 153
3 157 154 153
3 157 153 156
3 159 157 156
3 159 156 158
3 155 159 158
3 155 158 188
3 3 160 5
3 3 5 161
3 44 163 40
3 44 40 162
3 165 93 164
3 165 164 89
3 83 166 85
3 83 85 167
3 168 34 38
3 168 38 169
3 170 52 171
3 170 171 53
3 172 43 45
3 172 45 173
3 174 58 62
3 174 62 175
3 176 33 39
3 176 39 177
3 178 106 110
3 178 110 179
3 180 142 181
3 180 181 143
3 182 57 63
3 182 63 183
3 4 185 0
3 4 0 184
3 186 105 111
3 186 111 187
3 189 155 188
3 189 188 152
3 84 191 80
3 84 80 190
3 64 65 66
3 64 66 67
3 71 70 69
3 71 69 68
3 118 116 113
3 118 113 112
3 115 114 117
3 115 117 119
3 126 124 121
3 126 121 120
3 123 122 125
3 123 125 127
3 131 130 133
3 131 133 135
3 134 132 129
3 134 129 128
3 147 146 149
3 147 149 151
3 150 148 145
3 150 145 144
