ply
format ascii 1.0
comment Created by Open3D
element vertex 757
property double x
property double y
property double z
property double nx
property double ny
property double nz
element face 514
property list uchar uint vertex_indices
end_header
18.3039 0.131854 160.644 0 0 0
268.304 0.131854 160.644 0 0 0
261.039 59.9608 160.644 0 0 0
239.668 116.313 160.644 0 0 0
205.432 165.913 160.644 0 0 0
160.32 205.878 160.644 0 0 0
106.955 233.886 160.644 0 0 0
48.438 248.309 160.644 0 0 0
-11.8303 248.309 160.644 0 0 0
-70.3474 233.886 160.644 0 0 0
-123.712 205.878 160.644 0 0 0
-168.824 165.913 160.644 0 0 0
-203.061 -116.047 160.644 0 0 0
-168.824 -165.649 160.644 0 0 0
-123.712 -205.614 160.644 0 0 0
-70.3474 -233.622 160.644 0 0 0
-11.8303 -248.045 160.644 0 0 0
48.438 -248.045 160.644 0 0 0
106.955 -233.622 160.644 0 0 0
160.32 -205.614 160.644 0 0 0
205.432 -165.649 160.644 0 0 0
239.668 -116.049 160.644 0 0 0
261.039 -59.6971 160.644 0 0 0
-203.061 116.31 160.644 0 0 0
268.304 0.131854 124.513 0 0 0
261.039 59.9608 124.513 0 0 0
239.668 116.313 124.513 0 0 0
205.432 165.913 124.513 0 0 0
160.32 205.878 124.513 0 0 0
106.955 233.886 124.513 0 0 0
48.438 248.309 124.513 0 0 0
205.432 -165.649 124.513 0 0 0
239.668 -116.049 124.513 0 0 0
-11.8303 248.309 124.513 0 0 0
-70.3474 233.886 124.513 0 0 0
-123.712 205.878 124.513 0 0 0
-168.824 165.913 124.513 0 0 0
-203.061 -116.047 124.513 0 0 0
-168.824 -165.649 124.513 0 0 0
-123.712 -205.614 124.513 0 0 0
-70.3474 -233.622 124.513 0 0 0
-11.8303 -248.045 124.513 0 0 0
48.438 -248.045 124.513 0 0 0
-203.061 116.31 124.513 0 0 0
261.039 -59.6971 124.513 0 0 0
106.955 -233.622 124.513 0 0 0
160.32 -205.614 124.513 0 0 0
-198.061 -114.489 124.513 0 0 0
-198.061 114.752 124.513 0 0 0
-165.054 -162.309 124.513 0 0 0
-165.054 162.573 124.513 0 0 0
-120.851 -201.469 124.513 0 0 0
-120.851 201.733 124.513 0 0 0
-68.5612 -228.913 124.513 0 0 0
-68.5612 229.177 124.513 0 0 0
-11.2232 -243.045 124.513 0 0 0
-11.2232 243.309 124.513 0 0 0
47.831 -243.045 124.513 0 0 0
47.831 243.309 124.513 0 0 0
105.169 -228.913 124.513 0 0 0
105.169 229.177 124.513 0 0 0
157.459 -201.469 124.513 0 0 0
157.459 201.733 124.513 0 0 0
201.662 -162.309 124.513 0 0 0
201.662 162.573 124.513 0 0 0
235.208 -113.708 124.513 0 0 0
235.208 113.972 124.513 0 0 0
256.149 -58.4917 124.513 0 0 0
256.149 58.7554 124.513 0 0 0
263.267 0.131854 124.513 0 0 0
-198.061 -114.489 89.9538 0 0 0
-198.061 114.752 89.9538 0 0 0
-165.054 -162.309 89.9538 0 0 0
-165.054 162.573 89.9538 0 0 0
-120.851 -201.469 89.9538 0 0 0
-120.851 201.733 89.9538 0 0 0
-68.5612 -228.913 89.9538 0 0 0
-68.5612 229.177 89.9538 0 0 0
-11.2232 -243.045 89.9538 0 0 0
-11.2232 243.309 89.9538 0 0 0
47.831 -243.045 89.9538 0 0 0
47.831 243.309 89.9538 0 0 0
105.169 -228.913 89.9538 0 0 0
105.169 229.177 89.9538 0 0 0
157.459 -201.469 89.9538 0 0 0
157.459 201.733 89.9538 0 0 0
201.662 -162.309 89.9538 0 0 0
201.662 162.573 89.9538 0 0 0
235.208 -113.708 89.9538 0 0 0
235.208 113.972 89.9538 0 0 0
256.149 -58.4917 89.9538 0 0 0
256.149 58.7554 89.9538 0 0 0
263.267 0.131854 89.9538 0 0 0
-218.133 0.131854 20.0036 -1 1.22465e-16 0
-210.214 17.3583 20.0036 0.5 0.5 1.38841e-07
-212.89 17.3583 20.0036 -0.297197 0.954816 2.73041e-07
-215.839 15.3401 20.0036 -0.762961 0.646445 2.23397e-07
-218.133 10.4677 20.0036 -0.976062 0.217491 9.57403e-08
-210.214 15.0504 11.3904 0.5 0.433013 -0.25
-212.89 15.0504 11.3904 -0.297197 0.826895 -0.477408
-215.839 13.3026 12.3995 -0.76296 0.559838 -0.323223
-218.133 9.08298 14.8357 -0.976062 0.188353 -0.108745
-210.214 8.74507 5.08509 0.5 0.25 -0.433013
-212.89 8.74507 5.08509 -0.297197 0.477408 -0.826895
-215.839 7.73597 6.83291 -0.76296 0.323223 -0.559838
-218.133 5.29979 11.0525 -0.976062 0.108745 -0.188353
-210.214 0.131854 2.77718 0.5 -6.12323e-17 -0.5
-212.89 0.131854 2.77718 -0.297197 -4.01531e-09 -0.954816
-215.839 0.131854 4.79538 -0.762961 1.37174e-08 -0.646445
-218.133 0.131854 9.66776 -0.976062 1.14888e-08 -0.217491
-210.214 -8.48137 5.08509 0.5 -0.25 -0.433013
-212.89 -8.48137 5.08509 -0.297197 -0.477408 -0.826895
-215.839 -7.47226 6.83291 -0.76296 -0.323223 -0.559838
-218.133 -5.03608 11.0525 -0.976062 -0.108745 -0.188353
-210.214 -14.7867 11.3904 0.5 -0.433013 -0.25
-212.89 -14.7867 11.3904 -0.297197 -0.826895 -0.477408
-215.839 -13.0389 12.3995 -0.76296 -0.559838 -0.323223
-218.133 -8.81927 14.8357 -0.976062 -0.188353 -0.108745
-210.214 -17.0946 20.0036 0.5 -0.5 1.38841e-07
-212.89 -17.0946 20.0036 -0.297196 -0.954816 2.73041e-07
-215.839 -15.0764 20.0036 -0.762961 -0.646445 2.03801e-07
-218.133 -10.204 20.0036 -0.976062 -0.217491 7.65923e-08
-210.214 -14.7867 28.6168 0.5 -0.433013 0.25
-212.89 -14.7867 28.6168 -0.297196 -0.826895 0.477408
-215.839 -13.0389 27.6077 -0.76296 -0.559838 0.323223
-218.133 -8.81927 25.1715 -0.976062 -0.188353 0.108745
-210.214 -8.48137 34.9221 0.5 -0.25 0.433013
-212.89 -8.48137 34.9221 -0.297196 -0.477408 0.826895
-215.839 -7.47226 33.1743 -0.76296 -0.323223 0.559838
-218.133 -5.03608 28.9547 -0.976062 -0.108745 0.188352
-210.214 0.131854 37.23 0.5 -6.12323e-17 0.5
-212.89 0.131854 37.23 -0.297196 -1.60612e-08 0.954817
-215.839 0.131854 35.2119 -0.76296 7.83849e-09 0.646446
-218.133 0.131854 30.3395 -0.976062 2.48925e-08 0.217491
-210.214 8.74507 34.9221 0.5 0.25 0.433013
-212.89 8.74507 34.9221 -0.297196 0.477408 0.826895
-215.839 7.73597 33.1743 -0.76296 0.323223 0.559838
-218.133 5.29979 28.9547 -0.976062 0.108745 0.188353
-210.214 15.0504 28.6168 0.5 0.433013 0.25
-212.89 15.0504 28.6168 -0.297196 0.826895 0.477408
-215.839 13.3026 27.6077 -0.76296 0.559838 0.323223
-218.133 9.08298 25.1715 -0.976062 0.188353 0.108745
-200.883 7.78841 20.0036 0.0170147 0.999855 3.2396e-07
-210.214 7.94721 20.0036 0.508507 0.499928 1.6198e-07
-200.883 6.76262 16.1753 0.0170147 0.8659 -0.499927
-210.214 6.90015 16.0959 0.508507 0.43295 -0.249963
-200.883 3.96013 13.3728 0.0170145 0.499928 -0.8659
-210.214 4.03953 13.2353 0.508507 0.249964 -0.43295
-200.883 0.131854 12.3471 0.0170145 -2.08368e-18 -0.999855
-210.214 0.131854 12.1883 0.508507 -6.22742e-17 -0.499928
-200.883 -3.69642 13.3728 0.0170145 -0.499928 -0.8659
-210.214 -3.77582 13.2353 0.508507 -0.249964 -0.43295
-200.883 -6.49892 16.1753 0.0170147 -0.8659 -0.499927
-210.214 -6.63644 16.0959 0.508507 -0.43295 -0.249963
-200.883 -7.5247 20.0036 0.0170147 -0.999855 3.2396e-07
-210.214 -7.6835 20.0036 0.508507 -0.499928 1.6198e-07
-200.883 -6.49892 23.8319 0.0170142 -0.8659 0.499928
-210.214 -6.63644 23.9113 0.508507 -0.43295 0.249964
-200.883 -3.69642 26.6344 0.0170142 -0.499927 0.865901
-210.214 -3.77582 26.7719 0.508507 -0.249963 0.43295
-200.883 0.131854 27.6602 0.0170145 -2.08368e-18 0.999855
-210.214 0.131854 27.819 0.508507 -6.22742e-17 0.499928
-200.883 3.96013 26.6344 0.0170142 0.499927 0.865901
-210.214 4.03953 26.7719 0.508507 0.249963 0.43295
-200.883 6.76262 23.8319 0.0170142 0.8659 0.499928
-210.214 6.90015 23.9113 0.508507 0.43295 0.249964
18.3039 0.131854 -137.677 -0 0 -1
268.304 0.131854 -137.677 0.5 -6.12323e-17 -0.5
261.039 59.9608 -137.677 0.485471 0.119658 -0.5
239.668 116.313 -137.677 0.442728 0.232362 -0.5
205.432 165.913 -137.677 0.374255 0.331561 -0.5
160.32 205.878 -137.677 0.284032 0.411492 -0.5
106.955 233.886 -137.677 0.177302 0.467508 -0.5
48.438 248.309 -137.677 0.0602684 0.496354 -0.5
-11.8303 248.309 -137.677 -0.0602684 0.496354 -0.5
-70.3474 233.886 -137.677 -0.177302 0.467508 -0.5
-123.712 205.878 -137.677 -0.284032 0.411492 -0.5
-168.824 165.913 -137.677 -0.374256 0.33156 -0.499999
-203.06 116.313 -137.677 -0.442729 0.232361 -0.499999
-224.432 59.9608 -137.677 -0.485471 0.119658 -0.5
-231.696 0.131854 -137.677 -0.5 6.12323e-17 -0.5
-224.432 -59.6971 -137.677 -0.485471 -0.119658 -0.5
-203.06 -116.049 -137.677 -0.442729 -0.23236 -0.499999
-168.824 -165.649 -137.677 -0.374256 -0.33156 -0.499999
-123.712 -205.614 -137.677 -0.284032 -0.411492 -0.5
-70.3474 -233.622 -137.677 -0.177302 -0.467508 -0.5
-11.8303 -248.045 -137.677 -0.0602684 -0.496354 -0.5
48.438 -248.045 -137.677 0.0602684 -0.496354 -0.5
106.955 -233.622 -137.677 0.177302 -0.467508 -0.5
160.32 -205.614 -137.677 0.284032 -0.411492 -0.5
205.432 -165.649 -137.677 0.374255 -0.331561 -0.5
239.668 -116.049 -137.677 0.442728 -0.232362 -0.5
261.039 -59.6971 -137.677 0.485471 -0.119658 -0.5
-224.432 59.9608 -34.2338 -0.647295 0.159544 0.333333
217.281 22.6024 47.8125 0.235804 0.0578581 -0.75
268.304 0.131854 17.5941 0.4 -4.89859e-17 0.6
-224.432 -59.6971 -34.2338 -0.647295 -0.159544 0.333333
239.668 116.313 47.8125 0.442728 0.232362 -0.5
217.281 -22.3387 47.8125 0.235804 -0.0578581 -0.75
261.039 59.9608 47.8125 0.485471 0.119658 -0.5
268.304 0.131854 47.8125 0.4 -4.89859e-17 -0.6
205.432 165.913 47.8125 0.374255 0.331561 -0.5
261.039 59.9608 17.5941 0.485471 0.119658 0.5
205.432 165.913 17.5941 0.374255 0.331561 0.5
205.432 -165.649 47.8125 0.374255 -0.331561 -0.5
160.32 205.878 47.8125 0.284032 0.411492 -0.5
239.668 116.313 17.5941 0.442728 0.232362 0.5
106.955 233.886 17.5941 0.367187 0.661728 0.2
106.955 233.886 47.8125 0.367187 0.661728 -0.2
160.32 205.878 17.5941 0.284032 0.411492 0.5
239.668 -116.049 17.5941 0.442728 -0.232362 0.5
205.432 -165.649 17.5941 0.374255 -0.331561 0.5
261.039 -59.6971 17.5941 0.485471 -0.119658 0.5
239.668 -116.049 47.8125 0.442728 -0.232362 -0.5
261.039 -59.6971 47.8125 0.485471 -0.119658 -0.5
217.281 -22.3387 17.5941 0.235804 -0.0578581 0.75
106.955 -233.622 47.8125 0.367187 -0.661728 -0.2
160.32 -205.614 47.8125 0.284032 -0.411492 -0.5
160.32 -205.614 17.5941 0.284032 -0.411492 0.5
-231.696 0.131854 -34.2338 -0.666667 8.16431e-17 0.333333
106.955 -233.622 17.5941 0.367187 -0.661728 0.2
-203.061 116.31 -34.2338 -0.719564 0.300089 0.200001
217.281 22.6024 17.5941 0.235804 0.0578581 0.75
-203.061 -116.047 -34.2338 -0.719564 -0.300088 0.200001
268.304 0.131854 90.6624 0.5 -6.12323e-17 0.5
261.039 59.9608 90.6624 0.485471 0.119658 0.5
239.668 116.313 90.6624 0.442728 0.232362 0.5
205.432 165.913 90.6624 0.374255 0.331561 0.5
160.32 205.878 90.6624 0.284032 0.411492 0.5
106.955 233.886 90.6624 0.177302 0.467508 0.5
48.438 248.309 90.6624 0.0602684 0.496354 0.5
205.432 -165.649 90.6624 0.374255 -0.331561 0.5
239.668 -116.049 90.6624 0.442728 -0.232362 0.5
-11.8303 248.309 90.6624 -0.0602684 0.496354 0.5
-70.3474 233.886 90.6624 -0.177302 0.467508 0.5
-123.712 205.878 90.6624 -0.284032 0.411492 0.5
-168.824 165.913 90.6624 -0.374257 0.33156 0.5
-203.061 -116.047 90.6624 -0.455747 -0.142014 0.5
-168.824 -165.649 90.6624 -0.374257 -0.33156 0.5
-123.712 -205.614 90.6624 -0.284032 -0.411492 0.5
-70.3474 -233.622 90.6624 -0.177302 -0.467508 0.5
-11.8303 -248.045 90.6624 -0.0602684 -0.496354 0.5
48.438 -248.045 90.6624 0.0602684 -0.496354 0.5
-203.061 116.31 90.6624 -0.455747 0.142014 0.5
261.039 -59.6971 90.6624 0.485471 -0.119658 0.5
106.955 -233.622 90.6624 0.177302 -0.467508 0.5
160.32 -205.614 90.6624 0.284032 -0.411492 0.5
48.438 248.309 36.1818 0.144601 0.98949 0
-70.3474 233.886 9.8798 -0.354605 0.935016 0
-123.712 205.878 0.0165495 -0.568065 0.822984 0
-11.8303 248.309 20.4006 -0.120537 0.992709 0
48.438 -248.045 12.4904 0.144601 -0.98949 0
-168.824 165.913 -14.0586 -0.748513 0.66312 6.82599e-07
-168.824 -165.649 -17.1672 -0.748513 -0.66312 6.81836e-07
-123.712 -205.614 -7.59274 -0.568065 -0.822984 0
-70.3474 -233.622 -3.86244 -0.354605 -0.935016 0
-11.8303 -248.045 1.52549 -0.120537 -0.992709 0
258.231 0.131854 90.6624 0 0 1
251.259 57.55 90.6624 0 0 1
251.259 -57.2863 90.6624 0 0 1
230.748 111.631 90.6624 0 0 1
230.748 -111.368 90.6624 0 0 1
197.892 159.233 90.6624 0 0 1
197.892 -158.969 90.6624 0 0 1
154.598 197.588 90.6624 0 0 1
154.598 -197.324 90.6624 0 0 1
103.383 224.467 90.6624 0 0 1
103.383 -224.203 90.6624 0 0 1
47.2238 238.309 90.6624 0 0 1
47.2238 -238.045 90.6624 0 0 1
-10.616 238.309 90.6624 0 0 1
-10.616 -238.045 90.6624 0 0 1
-66.7752 224.467 90.6624 0 0 1
-66.7752 -224.203 90.6624 0 0 1
-117.99 197.588 90.6624 0 0 1
-117.99 -197.324 90.6624 0 0 1
-161.284 159.233 90.6624 0 0 1
-161.284 -158.969 90.6624 0 0 1
-193.061 113.194 90.6624 0 0 1
-193.061 -112.931 90.6624 0 0 1
178.456 -14.8681 -136.21 -1.22465e-16 -1 0
178.456 15.1319 -136.21 1.22465e-16 1 0
89.1943 -90.4422 159.863 0 0 0
255.061 -14.8681 -136.214 0.321394 -0.5 -0.383022
255.061 15.1319 -136.214 0.321394 0.5 -0.383022
89.1943 -90.4422 169.863 0 0 0
82.5956 -101.871 159.863 0 0 0
228.456 -14.8681 -158.538 0.25 -0.5 -0.433013
82.5956 -101.871 169.863 0 0 0
228.456 15.1319 -158.538 0.25 0.5 -0.433013
195.821 -14.8681 -170.416 0.0868241 -0.5 -0.492404
80.3039 -114.868 159.863 0 0 0
195.821 15.1319 -170.416 0.0868241 0.5 -0.492404
80.3039 -114.868 169.863 0 0 0
82.5956 -127.865 159.863 0 0 0
161.091 -14.8681 -170.416 -0.0868241 -0.5 -0.492404
82.5956 -127.865 169.863 0 0 0
161.091 15.1319 -170.416 -0.0868241 0.5 -0.492404
128.456 -14.8681 -158.538 -0.25 -0.5 -0.433013
89.1943 -139.294 159.863 0 0 0
128.456 15.1319 -158.538 -0.25 0.5 -0.433013
89.1943 -139.294 169.863 0 0 0
101.852 -14.8681 -136.214 -0.321394 -0.5 -0.383022
99.3039 -147.777 159.863 0 0 0
99.3039 -147.777 169.863 0 0 0
101.852 15.1319 -136.214 -0.321394 0.5 -0.383022
-141.849 -14.8681 -136.21 -1.22465e-16 -1 0
-141.849 15.1319 -136.21 1.22465e-16 1 0
111.705 -152.291 159.863 0 0 0
-218.453 -14.8681 -136.214 -0.321394 -0.5 -0.383022
111.705 -152.291 169.863 0 0 0
-218.453 15.1319 -136.214 -0.321394 0.5 -0.383022
-191.849 -14.8681 -158.538 -0.25 -0.5 -0.433013
124.902 -152.291 159.863 0 0 0
-191.849 15.1319 -158.538 -0.25 0.5 -0.433013
124.902 -152.291 169.863 0 0 0
137.304 -147.777 159.863 0 0 0
-159.213 -14.8681 -170.416 -0.0868241 -0.5 -0.492404
-159.213 15.1319 -170.416 -0.0868241 0.5 -0.492404
137.304 -147.777 169.863 0 0 0
147.414 -139.294 159.863 0 0 0
-124.484 -14.8681 -170.416 0.0868241 -0.5 -0.492404
-124.484 15.1319 -170.416 0.0868241 0.5 -0.492404
147.414 -139.294 169.863 0 0 0
154.012 -127.865 159.863 0 0 0
-91.8485 -14.8681 -158.538 0.25 -0.5 -0.433013
154.012 -127.865 169.863 0 0 0
-91.8485 15.1319 -158.538 0.25 0.5 -0.433013
-43.6961 115.132 159.863 0 0 0
-65.244 -14.8681 -136.214 0.321394 -0.5 -0.383022
-43.6961 115.132 169.863 0 0 0
-65.244 15.1319 -136.214 0.321394 0.5 -0.383022
18.3039 196.324 -136.21 -1.22465e-16 -1 0
18.3039 226.324 -136.21 1.22465e-16 1 0
-45.9879 128.129 159.863 0 0 0
94.9084 196.324 -136.214 0.321394 -0.5 -0.383022
-45.9879 128.129 169.863 0 0 0
94.9084 226.324 -136.214 0.321394 0.5 -0.383022
68.3039 196.324 -158.538 0.25 -0.5 -0.433013
-52.5864 139.558 159.863 0 0 0
68.3039 226.324 -158.538 0.25 0.5 -0.433013
-52.5864 139.558 169.863 0 0 0
-62.6961 148.041 159.863 0 0 0
35.6686 196.324 -170.416 0.0868241 -0.5 -0.492404
-62.6961 148.041 169.863 0 0 0
35.6686 226.324 -170.416 0.0868241 0.5 -0.492404
-75.0975 152.555 159.863 0 0 0
0.939071 196.324 -170.416 -0.0868241 -0.5 -0.492404
-75.0975 152.555 169.863 0 0 0
0.939071 226.324 -170.416 -0.0868241 0.5 -0.492404
-31.6961 196.324 -158.538 -0.25 -0.5 -0.433013
-88.2947 152.555 159.863 0 0 0
-31.6961 226.324 -158.538 -0.25 0.5 -0.433013
-88.2947 152.555 169.863 0 0 0
-58.3005 196.324 -136.214 -0.321394 -0.5 -0.383022
-100.696 148.041 159.863 0 0 0
-58.3005 226.324 -136.214 -0.321394 0.5 -0.383022
-100.696 148.041 169.863 0 0 0
18.3039 -196.061 -136.21 1.22465e-16 1 0
18.3039 -226.061 -136.21 -1.22465e-16 -1 0
-110.806 139.558 159.863 0 0 0
94.9084 -196.061 -136.214 0.321394 0.5 -0.383022
-110.806 139.558 169.863 0 0 0
94.9084 -226.061 -136.214 0.321394 -0.5 -0.383022
68.3039 -196.061 -158.538 0.25 0.5 -0.433013
-117.404 128.129 159.863 0 0 0
68.3039 -226.061 -158.538 0.25 -0.5 -0.433013
-117.404 128.129 169.863 0 0 0
-119.696 115.132 159.863 0 0 0
35.6686 -196.061 -170.416 0.0868241 0.5 -0.492404
-119.696 115.132 169.863 0 0 0
35.6686 -226.061 -170.416 0.0868241 -0.5 -0.492404
0.939071 -196.061 -170.416 -0.0868241 0.5 -0.492404
-117.404 102.135 159.863 0 0 0
0.939071 -226.061 -170.416 -0.0868241 -0.5 -0.492404
-117.404 102.135 169.863 0 0 0
-110.806 90.7059 159.863 0 0 0
-31.6961 -196.061 -158.538 -0.25 0.5 -0.433013
-31.6961 -226.061 -158.538 -0.25 -0.5 -0.433013
-110.806 90.7059 169.863 0 0 0
-100.696 82.2229 159.863 0 0 0
-58.3005 -196.061 -136.214 -0.321394 0.5 -0.383022
-58.3005 -226.061 -136.214 -0.321394 -0.5 -0.383022
-100.696 82.2229 169.863 0 0 0
-211.022 -18.6383 42.6904 -0.333333 -0.333333 -0.333333
-211.022 -18.6383 80.2307 -0.333333 -0.333333 0.333333
-202.279 -18.6383 42.6904 -6.12323e-17 -0.5 -0.5
-202.279 -18.6383 80.2307 -6.12323e-17 -0.5 0.5
-202.279 18.902 42.6904 6.12323e-17 0.5 -0.5
-202.279 18.902 80.2307 6.12323e-17 0.5 0.5
-211.022 18.902 42.6904 -0.333333 0.333333 -0.333333
-211.022 18.902 80.2307 -0.333333 0.333333 0.333333
-209.847 -65.7474 65.6665 -0.333333 -0.333333 -0.333333
-209.847 -65.7474 80.157 -0.333333 -0.333333 0.333333
-201.105 -65.7474 65.6665 -6.12323e-17 -0.5 -0.5
-201.105 -65.7474 80.157 -6.12323e-17 -0.5 0.5
-201.105 -51.2568 65.6665 6.12323e-17 0.5 -0.5
-201.105 -51.2568 80.157 6.12323e-17 0.5 0.5
-209.847 -51.2568 65.6665 -0.333333 0.333333 -0.333333
-209.847 -51.2568 80.157 -0.333333 0.333333 0.333333
-209.847 39.0439 65.6665 -0.333333 -0.333333 -0.333333
-209.847 39.0439 80.157 -0.333333 -0.333333 0.333333
-201.105 39.0439 65.6665 -6.12323e-17 -0.5 -0.5
-201.105 39.0439 80.157 -6.12323e-17 -0.5 0.5
-201.105 53.5344 65.6665 6.12323e-17 0.5 -0.5
-201.105 53.5344 80.157 6.12323e-17 0.5 0.5
-209.847 53.5344 65.6665 -0.333333 0.333333 -0.333333
-209.847 53.5344 80.157 -0.333333 0.333333 0.333333
-209.254 -18.6383 -29.4507 -0.333333 -0.333333 -0.333333
-209.254 -18.6383 -2.18508 -0.333333 -0.333333 0.333333
-200.511 -18.6383 -29.4507 -6.12323e-17 -0.5 -0.5
-200.511 -18.6383 -2.18508 -6.12323e-17 -0.5 0.5
-200.511 18.902 -29.4507 6.12323e-17 0.5 -0.5
-200.511 18.902 -2.18508 6.12323e-17 0.5 0.5
-209.254 18.902 -29.4507 -0.333333 0.333333 -0.333333
-209.254 18.902 -2.18508 -0.333333 0.333333 0.333333
-81.6961 -114.868 169.863 0 0 0
-43.6961 -114.868 159.863 0 0 0
-88.2947 77.7092 159.863 0 0 0
-43.6961 -114.868 169.863 0 0 0
-88.2947 77.7092 169.863 0 0 0
-45.9879 -101.871 159.863 0 0 0
-75.0975 77.7092 159.863 0 0 0
-75.0975 77.7092 169.863 0 0 0
-45.9879 -101.871 169.863 0 0 0
-52.5864 -90.4422 159.863 0 0 0
-62.6961 82.2229 159.863 0 0 0
-52.5864 -90.4422 169.863 0 0 0
-62.6961 82.2229 169.863 0 0 0
-52.5864 90.7059 159.863 0 0 0
-62.6961 -81.9592 159.863 0 0 0
-52.5864 90.7059 169.863 0 0 0
-62.6961 -81.9592 169.863 0 0 0
-75.0975 -77.4454 159.863 0 0 0
-45.9879 102.135 159.863 0 0 0
-75.0975 -77.4454 169.863 0 0 0
-45.9879 102.135 169.863 0 0 0
-88.2947 -77.4454 159.863 0 0 0
156.304 115.132 159.863 0 0 0
-88.2947 -77.4454 169.863 0 0 0
156.304 115.132 169.863 0 0 0
154.012 128.129 159.863 0 0 0
-100.696 -81.9592 159.863 0 0 0
154.012 128.129 169.863 0 0 0
-100.696 -81.9592 169.863 0 0 0
-110.806 -90.4422 159.863 0 0 0
147.414 139.558 159.863 0 0 0
147.414 139.558 169.863 0 0 0
-110.806 -90.4422 169.863 0 0 0
-117.404 -101.871 159.863 0 0 0
137.304 148.041 159.863 0 0 0
137.304 148.041 169.863 0 0 0
-117.404 -101.871 169.863 0 0 0
-119.696 -114.868 159.863 0 0 0
124.902 152.555 159.863 0 0 0
-119.696 -114.868 169.863 0 0 0
124.902 152.555 169.863 0 0 0
-117.404 -127.865 159.863 0 0 0
111.705 152.555 159.863 0 0 0
-117.404 -127.865 169.863 0 0 0
111.705 152.555 169.863 0 0 0
-110.806 -139.294 159.863 0 0 0
99.3039 148.041 159.863 0 0 0
99.3039 148.041 169.863 0 0 0
-110.806 -139.294 169.863 0 0 0
89.1943 139.558 159.863 0 0 0
-100.696 -147.777 159.863 0 0 0
-100.696 -147.777 169.863 0 0 0
89.1943 139.558 169.863 0 0 0
-88.2947 -152.291 159.863 0 0 0
82.5956 128.129 159.863 0 0 0
-88.2947 -152.291 169.863 0 0 0
82.5956 128.129 169.863 0 0 0
-75.0975 -152.291 159.863 0 0 0
80.3039 115.132 159.863 0 0 0
-75.0975 -152.291 169.863 0 0 0
80.3039 115.132 169.863 0 0 0
82.5956 102.135 159.863 0 0 0
-62.6961 -147.777 159.863 0 0 0
-62.6961 -147.777 169.863 0 0 0
82.5956 102.135 169.863 0 0 0
-52.5864 -139.294 159.863 0 0 0
89.1943 90.7059 159.863 0 0 0
89.1943 90.7059 169.863 0 0 0
-52.5864 -139.294 169.863 0 0 0
-45.9879 -127.865 159.863 0 0 0
99.3039 82.2229 159.863 0 0 0
-45.9879 -127.865 169.863 0 0 0
99.3039 82.2229 169.863 0 0 0
118.304 -114.868 169.863 0 0 0
111.705 77.7092 159.863 0 0 0
156.304 -114.868 159.863 0 0 0
111.705 77.7092 169.863 0 0 0
156.304 -114.868 169.863 0 0 0
154.012 -101.871 159.863 0 0 0
124.902 77.7092 159.863 0 0 0
154.012 -101.871 169.863 0 0 0
124.902 77.7092 169.863 0 0 0
147.414 -90.4422 159.863 0 0 0
137.304 82.2229 159.863 0 0 0
147.414 -90.4422 169.863 0 0 0
137.304 82.2229 169.863 0 0 0
147.414 90.7059 159.863 0 0 0
137.304 -81.9592 159.863 0 0 0
137.304 -81.9592 169.863 0 0 0
147.414 90.7059 169.863 0 0 0
154.012 102.135 159.863 0 0 0
124.902 -77.4454 159.863 0 0 0
154.012 102.135 169.863 0 0 0
124.902 -77.4454 169.863 0 0 0
111.705 -77.4454 159.863 0 0 0
111.705 -77.4454 169.863 0 0 0
-81.6961 115.132 169.863 0 0 0
99.3039 -81.9592 159.863 0 0 0
99.3039 -81.9592 169.863 0 0 0
118.304 115.132 169.863 0 0 0
18.3039 0.131854 130.715 0 0 1
268.304 0.131854 130.715 0.5 -6.12323e-17 0.5
261.039 59.9608 130.715 0.485471 0.119658 0.5
239.668 116.313 130.715 0.442728 0.232362 0.5
205.432 165.913 130.715 0.374255 0.331561 0.5
160.32 205.878 130.715 0.284032 0.411492 0.5
106.955 233.886 130.715 0.177302 0.467508 0.5
48.438 248.309 130.715 0.0602684 0.496354 0.5
-11.8303 248.309 130.715 -0.0602684 0.496354 0.5
-70.3474 233.886 130.715 -0.177302 0.467508 0.5
-123.712 205.878 130.715 -0.284032 0.411492 0.5
-168.824 165.913 130.715 -0.374257 0.33156 0.5
-203.061 -116.047 130.715 -0.455747 -0.142014 0.5
-168.824 -165.649 130.715 -0.374257 -0.33156 0.5
-123.712 -205.614 130.715 -0.284032 -0.411492 0.5
-70.3474 -233.622 130.715 -0.177302 -0.467508 0.5
-11.8303 -248.045 130.715 -0.0602684 -0.496354 0.5
48.438 -248.045 130.715 0.0602684 -0.496354 0.5
106.955 -233.622 130.715 0.177302 -0.467508 0.5
160.32 -205.614 130.715 0.284032 -0.411492 0.5
205.432 -165.649 130.715 0.374255 -0.331561 0.5
239.668 -116.049 130.715 0.442728 -0.232362 0.5
261.039 -59.6971 130.715 0.485471 -0.119658 0.5
-203.061 116.31 130.715 -0.455747 0.142014 0.5
268.304 0.131854 94.5828 0.5 -6.12323e-17 -0.5
261.039 59.9608 94.5828 0.485471 0.119658 -0.5
239.668 116.313 94.5828 0.442728 0.232362 -0.5
205.432 165.913 94.5828 0.374255 0.331561 -0.5
160.32 205.878 94.5828 0.284032 0.411492 -0.5
106.955 233.886 94.5828 0.177302 0.467508 -0.5
48.438 248.309 94.5828 0.0602684 0.496354 -0.5
205.432 -165.649 94.5828 0.374255 -0.331561 -0.5
239.668 -116.049 94.5828 0.442728 -0.232362 -0.5
-11.8303 248.309 94.5828 -0.0602684 0.496354 -0.5
-70.3474 233.886 94.5828 -0.177302 0.467508 -0.5
-123.712 205.878 94.5828 -0.284032 0.411492 -0.5
-168.824 165.913 94.5828 -0.374257 0.33156 -0.5
-203.061 -116.047 94.5828 -0.455747 -0.142014 -0.5
-168.824 -165.649 94.5828 -0.374257 -0.33156 -0.5
-123.712 -205.614 94.5828 -0.284032 -0.411492 -0.5
-70.3474 -233.622 94.5828 -0.177302 -0.467508 -0.5
-11.8303 -248.045 94.5828 -0.0602684 -0.496354 -0.5
48.438 -248.045 94.5828 0.0602684 -0.496354 -0.5
-203.061 116.31 94.5828 -0.455747 0.142014 -0.5
261.039 -59.6971 94.5828 0.485471 -0.119658 -0.5
106.955 -233.622 94.5828 0.177302 -0.467508 -0.5
160.32 -205.614 94.5828 0.284032 -0.411492 -0.5
-198.061 -114.489 94.5828 -0.455747 -0.142014 -0.5
-198.061 114.752 94.5828 -0.455747 0.142014 -0.5
-165.054 -162.309 94.5828 -0.374257 -0.33156 -0.5
-165.054 162.573 94.5828 -0.374257 0.33156 -0.5
-120.851 -201.469 94.5828 -0.284032 -0.411492 -0.5
-120.851 201.733 94.5828 -0.284032 0.411492 -0.5
-68.5612 -228.913 94.5828 -0.177302 -0.467508 -0.5
-68.5612 229.177 94.5828 -0.177302 0.467508 -0.5
-11.2232 -243.045 94.5828 -0.0602683 -0.496354 -0.5
-11.2232 243.309 94.5828 -0.0602683 0.496354 -0.5
47.831 -243.045 94.5828 0.0602683 -0.496354 -0.5
47.831 243.309 94.5828 0.0602683 0.496354 -0.5
105.169 -228.913 94.5828 0.177302 -0.467508 -0.5
105.169 229.177 94.5828 0.177302 0.467508 -0.5
157.459 -201.469 94.5828 0.284032 -0.411492 -0.5
157.459 201.733 94.5828 0.284032 0.411492 -0.5
201.662 -162.309 94.5828 0.374255 -0.331561 -0.5
201.662 162.573 94.5828 0.374255 0.331561 -0.5
235.208 -113.708 94.5828 0.442728 -0.232362 -0.5
235.208 113.972 94.5828 0.442728 0.232362 -0.5
256.149 -58.4917 94.5828 0.485471 -0.119658 -0.5
256.149 58.7554 94.5828 0.485471 0.119658 -0.5
263.267 0.131854 94.5828 0.5 -6.12323e-17 -0.5
-198.061 -114.489 60.024 -0.911495 -0.284029 0
-198.061 114.752 60.024 -0.911495 0.284029 0
-165.054 -162.309 60.024 -0.748514 -0.663119 0
-165.054 162.573 60.024 -0.748514 0.663119 0
-120.851 -201.469 60.024 -0.568065 -0.822984 0
-120.851 201.733 60.024 -0.568065 0.822984 0
-68.5612 -228.913 60.024 -0.354605 -0.935016 0
-68.5612 229.177 60.024 -0.354605 0.935016 0
-11.2232 -243.045 60.024 -0.120537 -0.992709 0
-11.2232 243.309 60.024 -0.120537 0.992709 0
47.831 -243.045 60.024 0.120537 -0.992709 0
47.831 243.309 60.024 0.120537 0.992709 0
105.169 -228.913 60.024 0.354605 -0.935016 0
105.169 229.177 60.024 0.354605 0.935016 0
157.459 -201.469 60.024 0.568065 -0.822984 0
157.459 201.733 60.024 0.568065 0.822984 0
201.662 -162.309 60.024 0.748511 -0.663123 0
201.662 162.573 60.024 0.748511 0.663123 0
235.208 -113.708 60.024 0.885456 -0.464723 0
235.208 113.972 60.024 0.885456 0.464723 0
256.149 -58.4917 60.024 0.970942 -0.239316 -6.53819e-18
256.149 58.7554 60.024 0.970942 0.239316 0
263.267 0.131854 60.024 1 -1.22465e-16 -6.53819e-18
89.1943 -90.4422 129.933 -0.766044 0.642788 0
89.1943 -90.4422 139.933 -0.383022 0.321394 0.5
82.5956 -101.871 129.933 -0.939693 0.34202 0
82.5956 -101.871 139.933 -0.469846 0.17101 0.5
80.3039 -114.868 129.933 -1 1.22465e-16 0
80.3039 -114.868 139.933 -0.5 6.12323e-17 0.5
82.5956 -127.865 129.933 -0.939693 -0.34202 0
82.5956 -127.865 139.933 -0.469846 -0.17101 0.5
89.1943 -139.294 129.933 -0.766044 -0.642788 0
89.1943 -139.294 139.933 -0.383022 -0.321394 0.5
99.3039 -147.777 129.933 -0.5 -0.866025 0
99.3039 -147.777 139.933 -0.25 -0.433013 0.5
111.705 -152.291 129.933 -0.173648 -0.984808 0
111.705 -152.291 139.933 -0.0868242 -0.492404 0.5
124.902 -152.291 129.933 0.173648 -0.984808 0
124.902 -152.291 139.933 0.0868242 -0.492404 0.5
137.304 -147.777 129.933 0.5 -0.866025 0
137.304 -147.777 139.933 0.25 -0.433013 0.5
147.414 -139.294 129.933 0.766044 -0.642788 0
147.414 -139.294 139.933 0.383022 -0.321394 0.5
154.012 -127.865 129.933 0.939693 -0.34202 0
154.012 -127.865 139.933 0.469846 -0.17101 0.5
-43.6961 115.132 129.933 1 -1.22465e-16 0
-43.6961 115.132 139.933 0.5 -6.12323e-17 0.5
-45.9879 128.129 129.933 0.939693 0.34202 0
-45.9879 128.129 139.933 0.469846 0.17101 0.5
-52.5864 139.558 129.933 0.766044 0.642788 0
-52.5864 139.558 139.933 0.383022 0.321394 0.5
-62.6961 148.041 129.933 0.5 0.866025 0
-62.6961 148.041 139.933 0.25 0.433013 0.5
-75.0975 152.555 129.933 0.173648 0.984808 0
-75.0975 152.555 139.933 0.0868242 0.492404 0.5
-88.2947 152.555 129.933 -0.173648 0.984808 0
-88.2947 152.555 139.933 -0.0868242 0.492404 0.5
-100.696 148.041 129.933 -0.5 0.866025 0
-100.696 148.041 139.933 -0.25 0.433013 0.5
-110.806 139.558 129.933 -0.766044 0.642788 0
-110.806 139.558 139.933 -0.383022 0.321394 0.5
-117.404 128.129 129.933 -0.939693 0.34202 0
-117.404 128.129 139.933 -0.469846 0.17101 0.5
-119.696 115.132 129.933 -1 1.22465e-16 0
-119.696 115.132 139.933 -0.5 6.12323e-17 0.5
-117.404 102.135 129.933 -0.939693 -0.34202 0
-117.404 102.135 139.933 -0.469846 -0.17101 0.5
-110.806 90.7059 129.933 -0.766044 -0.642788 0
-110.806 90.7059 139.933 -0.383022 -0.321394 0.5
-100.696 82.2229 129.933 -0.5 -0.866025 0
-100.696 82.2229 139.933 -0.25 -0.433013 0.5
-81.6961 -114.868 139.933 0 0 1
-43.6961 -114.868 129.933 1 -1.22465e-16 0
-88.2947 77.7092 129.933 -0.173648 -0.984808 0
-43.6961 -114.868 139.933 0.5 -6.12323e-17 0.5
-88.2947 77.7092 139.933 -0.0868242 -0.492404 0.5
-45.9879 -101.871 129.933 0.939693 0.34202 0
-75.0975 77.7092 129.933 0.173648 -0.984808 0
-75.0975 77.7092 139.933 0.0868242 -0.492404 0.5
-45.9879 -101.871 139.933 0.469846 0.17101 0.5
-52.5864 -90.4422 129.933 0.766044 0.642788 0
-62.6961 82.2229 129.933 0.5 -0.866025 0
-52.5864 -90.4422 139.933 0.383022 0.321394 0.5
-62.6961 82.2229 139.933 0.25 -0.433013 0.5
-52.5864 90.7059 129.933 0.766044 -0.642788 0
-62.6961 -81.9592 129.933 0.5 0.866025 0
-52.5864 90.7059 139.933 0.383022 -0.321394 0.5
-62.6961 -81.9592 139.933 0.25 0.433013 0.5
-75.0975 -77.4454 129.933 0.173648 0.984808 0
-45.9879 102.135 129.933 0.939693 -0.34202 0
-75.0975 -77.4454 139.933 0.0868242 0.492404 0.5
-45.9879 102.135 139.933 0.469846 -0.17101 0.5
-88.2947 -77.4454 129.933 -0.173648 0.984808 0
156.304 115.132 129.933 1 -1.22465e-16 0
-88.2947 -77.4454 139.933 -0.0868242 0.492404 0.5
156.304 115.132 139.933 0.5 -6.12323e-17 0.5
154.012 128.129 129.933 0.939693 0.34202 0
-100.696 -81.9592 129.933 -0.5 0.866025 0
154.012 128.129 139.933 0.469846 0.17101 0.5
-100.696 -81.9592 139.933 -0.25 0.433013 0.5
-110.806 -90.4422 129.933 -0.766044 0.642788 0
147.414 139.558 129.933 0.766044 0.642788 0
147.414 139.558 139.933 0.383022 0.321394 0.5
-110.806 -90.4422 139.933 -0.383022 0.321394 0.5
-117.404 -101.871 129.933 -0.939693 0.34202 0
137.304 148.041 129.933 0.5 0.866025 0
137.304 148.041 139.933 0.25 0.433013 0.5
-117.404 -101.871 139.933 -0.469846 0.17101 0.5
-119.696 -114.868 129.933 -1 1.22465e-16 0
124.902 152.555 129.933 0.173648 0.984808 0
-119.696 -114.868 139.933 -0.5 6.12323e-17 0.5
124.902 152.555 139.933 0.0868242 0.492404 0.5
-117.404 -127.865 129.933 -0.939693 -0.34202 0
111.705 152.555 129.933 -0.173648 0.984808 0
-117.404 -127.865 139.933 -0.469846 -0.17101 0.5
111.705 152.555 139.933 -0.0868242 0.492404 0.5
-110.806 -139.294 129.933 -0.766044 -0.642788 0
99.3039 148.041 129.933 -0.5 0.866025 0
99.3039 148.041 139.933 -0.25 0.433013 0.5
-110.806 -139.294 139.933 -0.383022 -0.321394 0.5
89.1943 139.558 129.933 -0.766044 0.642788 0
-100.696 -147.777 129.933 -0.5 -0.866025 0
-100.696 -147.777 139.933 -0.25 -0.433013 0.5
89.1943 139.558 139.933 -0.383022 0.321394 0.5
-88.2947 -152.291 129.933 -0.173648 -0.984808 0
82.5956 128.129 129.933 -0.939693 0.34202 0
-88.2947 -152.291 139.933 -0.0868242 -0.492404 0.5
82.5956 128.129 139.933 -0.469846 0.17101 0.5
-75.0975 -152.291 129.933 0.173648 -0.984808 0
80.3039 115.132 129.933 -1 1.22465e-16 0
-75.0975 -152.291 139.933 0.0868242 -0.492404 0.5
80.3039 115.132 139.933 -0.5 6.12323e-17 0.5
82.5956 102.135 129.933 -0.939693 -0.34202 0
-62.6961 -147.777 129.933 0.5 -0.866025 0
-62.6961 -147.777 139.933 0.25 -0.433013 0.5
82.5956 102.135 139.933 -0.469846 -0.17101 0.5
-52.5864 -139.294 129.933 0.766044 -0.642788 0
89.1943 90.7059 129.933 -0.766044 -0.642788 0
89.1943 90.7059 139.933 -0.383022 -0.321394 0.5
-52.5864 -139.294 139.933 0.383022 -0.321394 0.5
-45.9879 -127.865 129.933 0.939693 -0.34202 0
99.3039 82.2229 129.933 -0.5 -0.866025 0
-45.9879 -127.865 139.933 0.469846 -0.17101 0.5
99.3039 82.2229 139.933 -0.25 -0.433013 0.5
118.304 -114.868 139.933 0 0 1
111.705 77.7092 129.933 -0.173648 -0.984808 0
156.304 -114.868 129.933 1 -1.22465e-16 0
111.705 77.7092 139.933 -0.0868242 -0.492404 0.5
156.304 -114.868 139.933 0.5 -6.12323e-17 0.5
154.012 -101.871 129.933 0.939693 0.34202 0
124.902 77.7092 129.933 0.173648 -0.984808 0
154.012 -101.871 139.933 0.469846 0.17101 0.5
124.902 77.7092 139.933 0.0868242 -0.492404 0.5
147.414 -90.4422 129.933 0.766044 0.642788 0
137.304 82.2229 129.933 0.5 -0.866025 0
147.414 -90.4422 139.933 0.383022 0.321394 0.5
137.304 82.2229 139.933 0.25 -0.433013 0.5
147.414 90.7059 129.933 0.766044 -0.642788 0
137.304 -81.9592 129.933 0.5 0.866025 0
137.304 -81.9592 139.933 0.25 0.433013 0.5
147.414 90.7059 139.933 0.383022 -0.321394 0.5
154.012 102.135 129.933 0.939693 -0.34202 0
124.902 -77.4454 129.933 0.173648 0.984808 0
154.012 102.135 139.933 0.469846 -0.17101 0.5
124.902 -77.4454 139.933 0.0868242 0.492404 0.5
111.705 -77.4454 129.933 -0.173648 0.984808 0
111.705 -77.4454 139.933 -0.0868242 0.492404 0.5
-81.6961 115.132 139.933 0 0 1
99.3039 -81.9592 129.933 -0.5 0.866025 0
99.3039 -81.9592 139.933 -0.25 0.433013 0.5
118.304 115.132 139.933 0 0 1
3 223 221 193
3 245 267 269
3 233 270 268
3 242 269 271
3 234 272 270
3 241 271 273
3 235 274 272
3 240 273 275
3 236 276 274
3 239 275 277
3 243 278 276
3 238 277 279
3 237 279 278
3 298 295 280
3 298 300 297
3 300 281 297
3 302 298 280
3 302 305 300
3 305 281 300
3 287 283 280
3 287 289 284
3 289 281 284
3 290 287 280
3 290 292 289
3 292 281 289
3 295 290 280
3 295 297 292
3 297 281 292
3 321 325 306
3 322 327 325
3 307 327 322
3 325 329 306
3 327 331 329
3 307 331 327
3 309 312 306
3 311 314 312
3 307 314 311
3 312 317 306
3 314 318 317
3 307 318 314
3 317 321 306
3 318 322 321
3 307 322 318
3 350 347 332
3 350 352 349
3 352 333 349
3 354 350 332
3 354 356 352
3 356 333 352
3 338 335 332
3 338 340 337
3 340 333 337
3 343 338 332
3 343 345 340
3 345 333 340
3 347 343 332
3 347 349 345
3 349 333 345
3 372 377 358
3 374 378 377
3 359 378 374
3 377 381 358
3 378 382 381
3 359 382 378
3 361 364 358
3 363 366 364
3 359 366 363
3 364 369 358
3 366 371 369
3 359 371 366
3 369 372 358
3 371 374 372
3 359 374 371
3 386 387 385
3 388 386 384
3 390 391 389
3 384 385 391
3 387 389 391
3 394 395 393
3 396 394 392
3 398 399 397
3 392 393 399
3 395 397 399
3 402 403 401
3 404 402 400
3 406 407 405
3 400 401 407
3 403 405 407
3 410 411 409
3 412 410 408
3 414 415 413
3 408 409 415
3 411 413 415
3 120 121 117
3 121 93 117
3 140 141 137
3 141 93 137
3 156 157 155
3 122 123 119
3 123 124 120
3 124 125 121
3 125 93 121
3 142 143 165
3 94 95 139
3 158 159 157
3 126 127 123
3 127 128 124
3 100 101 97
3 101 93 97
3 131 132 128
3 132 133 129
3 133 93 129
3 128 129 125
3 129 93 125
3 146 147 145
3 102 103 99
3 103 104 100
3 104 105 101
3 105 93 101
3 95 96 140
3 96 97 141
3 162 163 161
3 97 93 141
3 110 151 153
3 148 149 147
3 106 107 103
3 134 163 165
3 107 108 104
3 114 153 155
3 108 109 105
3 109 93 105
3 118 155 157
3 134 135 131
3 138 165 143
3 135 136 132
3 136 137 133
3 122 157 159
3 126 159 161
3 94 143 145
3 150 151 149
3 98 145 147
3 110 111 107
3 130 161 163
3 111 112 108
3 112 113 109
3 113 93 109
3 137 93 133
3 102 147 149
3 106 149 151
3 160 161 159
3 130 131 127
3 152 153 151
3 114 115 111
3 144 145 143
3 115 116 112
3 116 117 113
3 117 93 113
3 164 165 163
3 138 139 135
3 139 140 136
3 98 99 95
3 99 100 96
3 154 155 153
3 118 119 115
3 119 120 116
3 168 167 166
3 195 167 168
3 199 225 224
3 203 209 222
3 169 168 166
3 202 168 169
3 206 203 222
3 202 206 222
3 170 169 166
3 206 169 170
3 210 215 211
3 226 197 201
3 216 220 215
3 195 202 222
3 171 170 166
3 195 215 212
3 203 170 171
3 222 215 195
3 172 171 166
3 208 229 228
3 209 171 172
3 213 204 198
3 173 172 166
3 252 236 235
3 220 218 215
3 211 215 218
3 174 173 166
3 250 233 230
3 217 216 198
3 175 174 166
3 208 205 194
3 201 194 205
3 176 175 166
3 248 234 233
3 197 194 201
3 177 176 166
3 251 242 241
3 199 194 197
3 178 177 166
3 227 201 205
3 254 184 185
3 179 178 166
3 221 178 179
3 208 207 247
3 216 245 242
3 180 179 166
3 193 179 180
3 225 199 197
3 181 180 166
3 219 180 181
3 244 214 200
3 182 181 166
3 223 196 181
3 200 214 198
3 250 174 175
3 183 182 166
3 194 200 198
3 243 221 223
3 184 183 166
3 254 239 238
3 239 254 255
3 185 184 166
3 247 230 229
3 256 186 187
3 186 185 166
3 256 241 240
3 251 220 216
3 187 186 166
3 245 216 217
3 231 204 213
3 188 187 166
3 220 188 189
3 223 182 183
3 251 187 188
3 189 188 166
3 221 243 236
3 252 177 178
3 247 173 174
3 190 189 166
3 218 189 190
3 204 231 246
3 248 175 176
3 191 190 166
3 191 210 211
3 200 194 199
3 249 176 177
3 237 223 253
3 253 183 184
3 192 191 166
3 210 191 192
3 214 244 232
3 255 185 186
3 167 192 166
3 212 192 167
3 207 172 173
3 222 207 208
3 212 215 210
3 204 217 198
3 249 235 234
3 198 215 222
3 214 213 198
3 209 207 222
3 225 258 257
3 224 257 259
3 226 260 258
3 244 259 261
3 227 262 260
3 232 261 263
3 228 264 262
3 231 263 265
3 229 266 264
3 246 265 267
3 230 268 266
3 710 712 708
3 662 665 660
3 553 528 539
3 528 516 539
3 529 516 528
3 518 516 517
3 530 516 529
3 556 531 530
3 542 519 518
3 519 516 518
3 531 516 530
3 532 516 531
3 558 533 532
3 533 516 532
3 558 561 534
3 520 516 519
3 534 516 533
3 544 521 520
3 562 535 534
3 521 516 520
3 535 516 534
3 536 516 535
3 548 537 536
3 522 516 521
3 537 516 536
3 538 516 537
3 546 523 522
3 560 538 537
3 523 516 522
3 540 517 538
3 517 516 538
3 524 516 523
3 543 520 519
3 550 525 524
3 525 516 524
3 545 522 521
3 549 524 523
3 526 516 525
3 551 526 525
3 552 527 526
3 527 516 526
3 555 530 529
3 554 529 528
3 539 516 527
3 557 532 531
3 547 536 535
3 541 518 517
3 559 539 527
3 559 564 563
3 553 563 565
3 552 566 564
3 554 565 567
3 551 568 566
3 555 567 569
3 550 570 568
3 556 569 571
3 549 572 570
3 557 571 573
3 546 574 572
3 558 573 575
3 545 576 574
3 561 575 577
3 544 578 576
3 562 577 579
3 543 580 578
3 547 579 581
3 542 582 580
3 548 581 583
3 541 584 582
3 560 583 585
3 540 585 584
3 564 587 586
3 563 586 588
3 566 589 587
3 565 588 590
3 568 591 589
3 567 590 592
3 570 593 591
3 569 592 594
3 572 595 593
3 571 594 596
3 574 597 595
3 573 596 598
3 576 599 597
3 575 598 600
3 578 601 599
3 577 600 602
3 580 603 601
3 579 602 604
3 582 605 603
3 581 604 606
3 584 607 605
3 583 606 608
3 585 608 607
3 665 657 660
3 712 657 708
3 666 668 665
3 668 657 665
3 714 716 712
3 671 673 668
3 673 657 668
3 716 657 712
3 674 676 673
3 676 657 673
3 719 720 716
3 678 680 676
3 680 657 676
3 720 657 716
3 683 685 680
3 685 657 680
3 722 725 720
3 686 689 685
3 689 657 685
3 725 657 720
3 690 693 689
3 693 657 689
3 726 728 725
3 694 696 693
3 696 657 693
3 728 657 725
3 698 700 696
3 700 657 696
3 658 660 728
3 702 705 700
3 705 657 700
3 660 657 728
3 707 708 705
3 708 657 705
3 621 622 620
3 735 737 734
3 737 730 734
3 622 730 620
3 739 741 737
3 741 730 737
3 623 624 622
3 744 745 741
3 745 730 741
3 624 730 622
3 748 750 745
3 750 730 745
3 625 626 624
3 751 752 750
3 752 730 750
3 626 730 624
3 754 755 752
3 755 730 752
3 627 628 626
3 609 610 755
3 610 730 755
3 628 730 626
3 611 612 610
3 612 730 610
3 629 630 628
3 613 614 612
3 614 730 612
3 630 730 628
3 615 616 614
3 616 730 614
3 732 734 630
3 617 618 616
3 618 730 616
3 734 730 630
3 619 620 618
3 620 730 618
3 659 661 656
3 633 634 632
3 634 753 632
3 661 753 656
3 635 636 634
3 636 753 634
3 663 664 661
3 637 638 636
3 638 753 636
3 664 753 661
3 639 640 638
3 640 753 638
3 667 669 664
3 641 642 640
3 642 753 640
3 669 753 664
3 643 644 642
3 644 753 642
3 670 672 669
3 645 646 644
3 646 753 644
3 672 753 669
3 647 648 646
3 648 753 646
3 675 677 672
3 649 650 648
3 650 753 648
3 677 753 672
3 651 652 650
3 652 753 650
3 631 632 677
3 653 654 652
3 654 753 652
3 632 753 677
3 655 656 654
3 656 753 654
3 731 733 729
3 682 684 681
3 684 756 681
3 733 756 729
3 687 688 684
3 688 756 684
3 736 738 733
3 691 692 688
3 692 756 688
3 738 756 733
3 695 697 692
3 697 756 692
3 740 742 738
3 699 701 697
3 701 756 697
3 742 756 738
3 703 704 701
3 704 756 701
3 743 746 742
3 706 709 704
3 709 756 704
3 746 756 742
3 711 713 709
3 713 756 709
3 747 749 746
3 715 717 713
3 717 756 713
3 749 756 746
3 718 721 717
3 721 756 717
3 679 681 749
3 723 724 721
3 724 756 721
3 681 756 749
3 727 729 724
3 729 756 724
